<svg xmlns="http://www.w3.org/2000/svg" xmlns:xlink="http://www.w3.org/1999/xlink" width="256" height="256" viewBox="0 0 256 256" fill="none">
<g  clip-path="url(#clip-path-0_8)">
<path     fill="#FFFFFF"  d="M0 256L256 256L256 0L0 0L0 256Z">
</path>
<path d="M256 128C256 198.688 198.688 256 128 256C57.312 256 0 198.688 0 128C0 57.312 57.312 0 128 0C198.688 0 256 57.312 256 128Z"   fill="#FFFFFF" >
</path>
<path d="M90.3572 51.84C90.357 51.7436 90.3597 51.6473 90.3654 51.551C90.3712 51.4548 90.38 51.3589 90.3917 51.2632C90.4033 51.1675 90.418 51.0724 90.4357 50.9777C90.4533 50.8829 90.4739 50.7887 90.4974 50.6952C90.5209 50.6017 90.5472 50.509 90.5764 50.4172C90.6056 50.3254 90.6377 50.2345 90.6727 50.1447C90.7075 50.0549 90.7451 49.9662 90.7854 49.8787C90.8259 49.7912 90.869 49.705 90.9147 49.6202C90.9605 49.5354 91.0089 49.452 91.0599 49.3702C91.1107 49.2884 91.1642 49.2082 91.2202 49.1297C91.276 49.0512 91.3342 48.9745 91.3949 48.8997C91.4556 48.8249 91.5186 48.752 91.5839 48.681C91.6491 48.61 91.7164 48.5411 91.7859 48.4745C91.8554 48.4076 91.9269 48.343 92.0004 48.2807C92.0739 48.2184 92.1493 48.1585 92.2267 48.101C92.3038 48.0433 92.3827 47.988 92.4634 47.9352C92.5441 47.8825 92.6263 47.8324 92.7102 47.7847C92.794 47.7372 92.8792 47.6923 92.9659 47.65C93.0524 47.6076 93.1402 47.568 93.2292 47.531C93.3183 47.4941 93.4085 47.4601 93.4997 47.429C93.5908 47.3976 93.6828 47.3692 93.7757 47.3437C93.8687 47.3182 93.9623 47.2956 94.0567 47.276C94.151 47.2561 94.2458 47.2393 94.3412 47.2255C94.4367 47.2118 94.5324 47.201 94.6284 47.193C94.7244 47.1851 94.8207 47.1803 94.9172 47.1785C95.0135 47.1766 95.1097 47.1777 95.2059 47.1817C95.3022 47.1859 95.3983 47.193 95.4942 47.203C95.59 47.2131 95.6855 47.2262 95.7807 47.2422C95.8757 47.2582 95.9701 47.2771 96.0639 47.299C96.1577 47.321 96.2508 47.3458 96.3432 47.3735C96.4355 47.4011 96.5269 47.4316 96.6174 47.465C96.7077 47.4983 96.797 47.5344 96.8852 47.5732C97.4345 47.8072 97.9727 48.0645 98.4997 48.3452C99.0267 48.6259 99.5405 48.9289 100.041 49.2542C100.542 49.5797 101.027 49.9262 101.498 50.2937C101.968 50.6614 102.422 51.0488 102.859 51.456C104.48 52.9812 105.845 54.7627 106.944 56.8212C109.163 60.96 110.133 65.5147 110.133 73.4612L110.133 136.651C110.133 143.541 114.869 149.333 121.269 150.923C121.322 150.935 121.375 150.947 121.429 150.957C121.483 150.967 121.536 150.975 121.591 150.982C121.645 150.989 121.699 150.994 121.753 150.998C121.808 151.002 121.862 151.004 121.917 151.004C121.971 151.005 122.026 151.004 122.08 151.002C122.134 150.999 122.189 150.995 122.243 150.99C122.297 150.984 122.351 150.977 122.405 150.969C122.459 150.96 122.512 150.95 122.566 150.938C122.619 150.927 122.672 150.914 122.724 150.899C122.777 150.884 122.829 150.868 122.881 150.851C122.932 150.833 122.983 150.814 123.034 150.794C123.084 150.773 123.134 150.751 123.183 150.728C123.233 150.705 123.281 150.68 123.329 150.654C123.377 150.628 123.424 150.601 123.47 150.572C123.517 150.543 123.562 150.513 123.607 150.482C123.651 150.45 123.695 150.418 123.738 150.384C123.781 150.35 123.822 150.315 123.863 150.279C123.904 150.243 123.944 150.206 123.982 150.167C124.021 150.129 124.058 150.089 124.095 150.049C124.131 150.008 124.166 149.967 124.201 149.924C124.235 149.881 124.267 149.838 124.299 149.794C124.331 149.749 124.361 149.704 124.39 149.658C124.419 149.611 124.447 149.565 124.473 149.517C124.499 149.469 124.524 149.421 124.548 149.372C124.572 149.322 124.594 149.273 124.614 149.222C124.635 149.172 124.655 149.121 124.672 149.07C124.69 149.018 124.707 148.966 124.722 148.914C124.737 148.861 124.75 148.809 124.762 148.755C124.774 148.702 124.784 148.649 124.793 148.595C124.802 148.541 124.81 148.487 124.815 148.433C124.821 148.379 124.825 148.324 124.828 148.27C124.831 148.216 124.832 148.161 124.832 148.107L124.832 72.9492C124.779 63.0187 123.296 56.224 119.915 49.888C119.711 49.5058 119.5 49.1276 119.283 48.7535C119.065 48.3791 118.841 48.009 118.609 47.643C118.378 47.277 118.14 46.9154 117.895 46.5582C117.65 46.201 117.399 45.8485 117.141 45.5005C116.884 45.1526 116.62 44.8096 116.349 44.4715C116.079 44.1335 115.802 43.8005 115.519 43.4727C115.237 43.1447 114.948 42.8221 114.653 42.505C114.358 42.1878 114.058 41.8762 113.751 41.5702C113.445 41.2642 113.133 40.964 112.816 40.6695C112.499 40.375 112.176 40.0864 111.848 39.8037C111.52 39.5212 111.187 39.2449 110.848 38.9747C110.51 38.7045 110.167 38.4407 109.819 38.1832C109.471 37.9257 109.118 37.6747 108.761 37.4302C108.403 37.1857 108.041 36.948 107.675 36.717C107.309 36.4858 106.939 36.2615 106.564 36.0442C106.19 35.8269 105.811 35.6165 105.429 35.4132C101.984 33.568 97.0772 32.0532 90.3572 32.4587C81.5679 32.992 75.6587 41.4827 75.6587 49.6L75.6587 138.304C75.7119 148.48 77.2587 155.349 80.8212 161.824C84.0212 167.616 88.8212 172.416 94.6239 175.605C99.2107 178.123 103.947 179.616 109.877 180.299C112.501 180.608 115.381 180.757 118.624 180.757L154.336 180.757C162.272 180.757 166.827 181.717 170.976 183.936C171.232 184.071 171.486 184.212 171.736 184.359C171.986 184.505 172.234 184.657 172.477 184.814C172.721 184.971 172.962 185.133 173.199 185.3C173.436 185.467 173.669 185.64 173.898 185.817C174.128 185.994 174.354 186.176 174.575 186.363C174.797 186.55 175.015 186.742 175.229 186.938C175.442 187.134 175.651 187.335 175.856 187.54C176.061 187.745 176.262 187.954 176.458 188.168C176.654 188.382 176.846 188.6 177.032 188.822C177.219 189.044 177.401 189.269 177.578 189.499C177.755 189.729 177.927 189.962 178.094 190.199C178.261 190.436 178.423 190.677 178.58 190.921C178.737 191.165 178.888 191.412 179.035 191.663C179.181 191.913 179.322 192.166 179.457 192.423C179.592 192.679 179.722 192.939 179.847 193.201C179.971 193.463 180.09 193.727 180.203 193.995C180.242 194.083 180.278 194.172 180.312 194.262C180.346 194.353 180.377 194.444 180.405 194.537C180.433 194.629 180.458 194.722 180.48 194.816C180.502 194.91 180.521 195.004 180.538 195.1C180.554 195.195 180.567 195.29 180.577 195.386C180.588 195.482 180.595 195.578 180.599 195.675C180.604 195.771 180.605 195.867 180.603 195.964C180.602 196.06 180.597 196.157 180.589 196.253C180.581 196.349 180.571 196.445 180.557 196.541C180.543 196.636 180.527 196.731 180.507 196.826C180.488 196.92 180.465 197.014 180.44 197.107C180.414 197.2 180.386 197.292 180.355 197.384C180.323 197.475 180.289 197.565 180.252 197.654C180.216 197.744 180.176 197.831 180.134 197.918C180.091 198.005 180.046 198.09 179.999 198.174C179.951 198.258 179.901 198.34 179.848 198.421C179.795 198.502 179.74 198.581 179.682 198.658C179.624 198.736 179.564 198.811 179.502 198.885C179.44 198.958 179.375 199.03 179.308 199.099C179.241 199.169 179.172 199.236 179.101 199.302C179.03 199.367 178.957 199.43 178.882 199.49C178.807 199.551 178.73 199.609 178.651 199.665C178.572 199.721 178.492 199.775 178.41 199.825C178.328 199.876 178.245 199.925 178.16 199.97C178.075 200.016 177.988 200.059 177.901 200.099C177.813 200.139 177.724 200.177 177.634 200.212C177.544 200.246 177.453 200.278 177.361 200.307C177.269 200.336 177.176 200.363 177.082 200.386C176.989 200.409 176.894 200.429 176.8 200.447C176.705 200.464 176.609 200.479 176.513 200.49C176.418 200.501 176.321 200.51 176.225 200.515C176.129 200.521 176.032 200.523 175.936 200.523L152.64 200.523C151.174 200.535 149.71 200.486 148.247 200.375C146.785 200.265 145.33 200.094 143.883 199.861C143.234 199.755 142.592 199.623 141.955 199.464C141.318 199.306 140.688 199.121 140.066 198.91C139.445 198.699 138.832 198.463 138.23 198.201C137.628 197.94 137.037 197.654 136.459 197.344C134.517 196.299 133.045 194.741 131.339 193.504C126.592 190.027 120.459 190.784 117.995 191.093C115.541 191.413 114.027 193.909 115.051 195.829C116.085 197.749 118.517 201.376 120.757 203.691C123.296 206.325 126.24 208.544 129.525 210.304C130.445 210.797 131.384 211.252 132.342 211.669C133.299 212.086 134.272 212.463 135.26 212.801C136.248 213.138 137.248 213.435 138.26 213.691C139.272 213.948 140.293 214.163 141.323 214.336C144.747 214.933 148.587 215.221 153.099 215.221L177.152 215.221C189.237 215.221 197.12 205.941 195.851 196.523C195.763 195.798 195.657 195.076 195.531 194.357C195.472 193.965 195.404 193.575 195.327 193.187C195.25 192.798 195.164 192.412 195.068 192.028C194.972 191.643 194.867 191.261 194.753 190.882C194.64 190.503 194.517 190.126 194.385 189.753C194.253 189.379 194.112 189.009 193.962 188.643C193.813 188.276 193.654 187.913 193.487 187.554C193.32 187.195 193.145 186.84 192.961 186.489C192.777 186.138 192.584 185.792 192.384 185.451C192.181 185.068 191.97 184.69 191.753 184.316C191.536 183.942 191.312 183.571 191.081 183.205C190.85 182.839 190.612 182.478 190.367 182.12C190.123 181.763 189.872 181.411 189.615 181.063C189.357 180.715 189.093 180.372 188.823 180.034C188.553 179.696 188.276 179.363 187.994 179.035C187.711 178.707 187.423 178.384 187.128 178.067C186.834 177.75 186.534 177.438 186.227 177.132C185.921 176.826 185.61 176.526 185.293 176.231C184.975 175.937 184.653 175.648 184.325 175.366C183.997 175.083 183.664 174.807 183.326 174.537C182.988 174.266 182.645 174.003 182.297 173.745C181.949 173.488 181.596 173.237 181.239 172.992C180.882 172.748 180.52 172.51 180.154 172.279C179.788 172.048 179.418 171.824 179.044 171.607C178.67 171.389 178.291 171.179 177.909 170.976C171.573 167.584 164.789 166.101 154.848 166.059L118.112 166.059C115.922 166.059 113.739 165.942 111.563 165.707C110.803 165.637 110.049 165.534 109.299 165.398C108.549 165.262 107.807 165.092 107.072 164.89C106.337 164.688 105.612 164.454 104.898 164.188C104.183 163.922 103.482 163.624 102.795 163.296C102.537 163.17 102.282 163.038 102.03 162.902C101.777 162.765 101.528 162.624 101.282 162.477C101.035 162.33 100.792 162.179 100.551 162.022C100.311 161.865 100.074 161.704 99.8402 161.538C99.6065 161.372 99.3763 161.201 99.1497 161.025C98.9228 160.849 98.6997 160.669 98.4804 160.484C98.2609 160.299 98.0453 160.11 97.8337 159.917C97.622 159.723 97.4143 159.525 97.2107 159.323C97.007 159.121 96.8076 158.915 96.6124 158.705C96.4172 158.495 96.2264 158.281 96.0399 158.063C95.8534 157.845 95.6714 157.623 95.4939 157.398C95.3166 157.172 95.1438 156.943 94.9757 156.711C94.8075 156.479 94.6442 156.243 94.4859 156.004C94.3274 155.765 94.1738 155.522 94.0252 155.277C93.8765 155.032 93.7329 154.784 93.5944 154.532C93.4559 154.281 93.3227 154.027 93.1947 153.771C91.2212 149.803 90.3572 145.312 90.3572 137.792L90.3572 51.8507L90.3572 51.84Z"   fill="#009C94" >
</path>
</g>
<defs>
<clipPath id="clip-path-0_8">
<path d="M0 256L256 256L256 0L0 0L0 256Z" fill="white"/>
</clipPath>
</defs>
</svg>
